<svg xmlns="http://www.w3.org/2000/svg" viewBox="0 0 1280 720" width="1280" height="720" role="img" aria-label="Cinematic muted city skyline preview background">
  <defs>
    <linearGradient id="sky" x1="0" y1="0" x2="0" y2="1">
      <stop offset="0" stop-color="#121b2a"/>
      <stop offset="0.42" stop-color="#263248"/>
      <stop offset="0.7" stop-color="#3b2d39"/>
      <stop offset="1" stop-color="#0b1119"/>
    </linearGradient>
    <linearGradient id="river" x1="0" y1="0" x2="1" y2="1">
      <stop offset="0" stop-color="#111a26"/>
      <stop offset="0.5" stop-color="#0b1119"/>
      <stop offset="1" stop-color="#182331"/>
    </linearGradient>
    <linearGradient id="glassA" x1="0" y1="0" x2="1" y2="1">
      <stop offset="0" stop-color="#2f4057"/>
      <stop offset="0.46" stop-color="#121b27"/>
      <stop offset="1" stop-color="#405168"/>
    </linearGradient>
    <linearGradient id="glassB" x1="0" y1="0" x2="1" y2="1">
      <stop offset="0" stop-color="#1d2a3b"/>
      <stop offset="0.58" stop-color="#0c131d"/>
      <stop offset="1" stop-color="#303e52"/>
    </linearGradient>
    <radialGradient id="duskGlow" cx="0.62" cy="0.36" r="0.58">
      <stop offset="0" stop-color="#f0a775" stop-opacity=".22"/>
      <stop offset=".38" stop-color="#6f8ca8" stop-opacity=".14"/>
      <stop offset="1" stop-color="#0b1119" stop-opacity="0"/>
    </radialGradient>
    <radialGradient id="lampGlow" cx=".5" cy=".5" r=".5">
      <stop offset="0" stop-color="#ffd79a" stop-opacity=".46"/>
      <stop offset=".5" stop-color="#f59e0b" stop-opacity=".14"/>
      <stop offset="1" stop-color="#f59e0b" stop-opacity="0"/>
    </radialGradient>
    <filter id="softNoise" x="-4%" y="-4%" width="108%" height="108%">
      <feTurbulence type="fractalNoise" baseFrequency=".76" numOctaves="3" seed="23"/>
      <feColorMatrix type="saturate" values="0"/>
      <feComponentTransfer>
        <feFuncA type="table" tableValues="0 .05"/>
      </feComponentTransfer>
    </filter>
    <filter id="farBlur">
      <feGaussianBlur stdDeviation="1.2"/>
    </filter>
    <filter id="trailBlur">
      <feGaussianBlur stdDeviation="1.8"/>
    </filter>
    <clipPath id="roadClip">
      <path d="M360 720 530 486h220l170 234Z"/>
    </clipPath>
  </defs>

  <rect width="1280" height="720" fill="url(#sky)"/>
  <rect width="1280" height="720" fill="url(#duskGlow)"/>

  <g opacity=".32" filter="url(#farBlur)">
    <rect x="28" y="176" width="98" height="342" fill="#101823"/>
    <rect x="162" y="228" width="122" height="292" fill="#172231"/>
    <rect x="1010" y="180" width="110" height="340" fill="#111a25"/>
    <rect x="1146" y="238" width="86" height="284" fill="#182231"/>
  </g>

  <g>
    <path d="M0 512h1280v208H0Z" fill="url(#river)"/>
    <path d="M0 586c152-40 270-50 406-22 90 18 174 23 258 10 188-30 333-56 616 4v142H0Z" fill="#080d14" opacity=".72"/>
    <path d="M350 720 532 486h216l182 234Z" fill="#090e15"/>
    <path d="M556 720 606 486h68l50 234Z" fill="#131b26"/>
    <g clip-path="url(#roadClip)" opacity=".72">
      <path d="M640 486v234" stroke="#52657c" stroke-width="3" stroke-dasharray="34 28"/>
      <path d="M532 486 360 720" stroke="#263241" stroke-width="4"/>
      <path d="M750 486 920 720" stroke="#263241" stroke-width="4"/>
      <path d="M454 636h372" stroke="#1e2937" stroke-width="1.4"/>
      <path d="M508 558h264" stroke="#1e2937" stroke-width="1.4"/>
    </g>
  </g>

  <g>
    <path d="M78 520V170l92-34 96 36v348Z" fill="url(#glassA)"/>
    <path d="M306 520V92l146 50v378Z" fill="url(#glassB)"/>
    <path d="M472 520V202l98-22 104 28v312Z" fill="url(#glassA)"/>
    <path d="M694 520V126l142-38 136 48v384Z" fill="url(#glassB)"/>
    <path d="M1002 520V184l102-26 116 36v326Z" fill="url(#glassA)"/>
    <path d="M1158 520V278l98-34 24 8v268Z" fill="#172333"/>
  </g>

  <g opacity=".18" stroke="#afc0d2" stroke-width=".9">
    <path d="M170 136v384M266 172 78 170M452 142 306 92M570 180v340M836 88v432M972 136 694 126M1104 158v362M1220 194 1002 184"/>
    <path d="M78 232h188M78 306h188M78 380h188M306 200h146M306 280h146M306 360h146M694 200h278M694 292h278M694 390h278M1002 254h218M1002 342h218M1002 430h218"/>
  </g>

  <g fill="#dcebf8" opacity=".56">
    <rect x="110" y="218" width="12" height="4"/><rect x="152" y="218" width="28" height="4"/><rect x="224" y="218" width="15" height="4"/>
    <rect x="106" y="292" width="32" height="4"/><rect x="188" y="292" width="13" height="4"/><rect x="230" y="292" width="26" height="4"/>
    <rect x="118" y="372" width="14" height="4"/><rect x="170" y="372" width="30" height="4"/><rect x="238" y="372" width="12" height="4"/>
    <rect x="336" y="180" width="28" height="4"/><rect x="396" y="180" width="14" height="4"/><rect x="342" y="266" width="14" height="4"/><rect x="380" y="266" width="34" height="4"/><rect x="330" y="388" width="24" height="4"/><rect x="410" y="388" width="14" height="4"/>
    <rect x="512" y="250" width="15" height="4"/><rect x="550" y="250" width="34" height="4"/><rect x="596" y="324" width="14" height="4"/><rect x="516" y="420" width="24" height="4"/>
    <rect x="738" y="192" width="34" height="4"/><rect x="816" y="192" width="15" height="4"/><rect x="884" y="192" width="28" height="4"/><rect x="734" y="284" width="15" height="4"/><rect x="790" y="284" width="34" height="4"/><rect x="878" y="284" width="15" height="4"/><rect x="744" y="384" width="30" height="4"/><rect x="838" y="384" width="15" height="4"/><rect x="908" y="384" width="36" height="4"/>
    <rect x="1036" y="248" width="36" height="4"/><rect x="1112" y="248" width="15" height="4"/><rect x="1050" y="346" width="15" height="4"/><rect x="1090" y="346" width="32" height="4"/><rect x="1160" y="432" width="15" height="4"/>
  </g>

  <g filter="url(#trailBlur)" opacity=".7">
    <path d="M80 600c110-18 186-24 286-10" stroke="#fbbf24" stroke-width="2.2" stroke-linecap="round" opacity=".32"/>
    <path d="M875 588c100-14 202-10 320 12" stroke="#ffcf8a" stroke-width="2.4" stroke-linecap="round" opacity=".3"/>
    <path d="M448 642h384" stroke="#dbeafe" stroke-width="1.2" stroke-linecap="round" opacity=".16"/>
    <path d="M910 646h158" stroke="#f97316" stroke-width="1.6" stroke-linecap="round" opacity=".22"/>
  </g>

  <g opacity=".78">
    <circle cx="455" cy="500" r="4" fill="#ffd79a"/>
    <circle cx="830" cy="500" r="4" fill="#ffd79a"/>
    <circle cx="455" cy="500" r="28" fill="url(#lampGlow)"/>
    <circle cx="830" cy="500" r="28" fill="url(#lampGlow)"/>
  </g>

  <rect width="1280" height="720" fill="#000" opacity=".13"/>
  <rect width="1280" height="720" filter="url(#softNoise)" opacity=".9"/>
  <rect width="1280" height="720" fill="none" stroke="#65758b" stroke-opacity=".14" stroke-width="2"/>
</svg>
